<svg id="Layer_1" xmlns="http://www.w3.org/2000/svg" version="1.1" viewBox="0 0 90.71 90.71">
  <!-- Generator: Adobe Illustrator 29.7.1, SVG Export Plug-In . SVG Version: 2.1.1 Build 8)  -->
  <defs>
    <style>
      .st0 {
        fill: #231f20;
      }
    </style>
  </defs>
  <path class="st0" d="M49.34,45.35l25.42-25.42c1.1-1.1,1.1-2.89,0-3.99-1.1-1.1-2.89-1.1-3.99,0l-25.42,25.42L19.94,15.95c-1.1-1.1-2.89-1.1-3.99,0-1.1,1.1-1.1,2.89,0,3.99l25.42,25.42-25.42,25.42c-1.1,1.1-1.1,2.89,0,3.99.55.55,1.27.83,1.99.83s1.44-.28,1.99-.83l25.42-25.42,25.42,25.42c.55.55,1.27.83,1.99.83s1.44-.28,1.99-.83c1.1-1.1,1.1-2.89,0-3.99l-25.42-25.42Z"></path>
</svg>