<svg viewBox="0 0 90.71 90.71" xmlns="http://www.w3.org/2000/svg"><g fill="#231f20"><path d="m71.54 79.89h-52.37c-1.83 0-3.5-.92-4.47-2.47-.96-1.53-1.07-3.41-.29-5.03 5.68-11.83 17.83-19.48 30.95-19.48s25.27 7.65 30.95 19.48c.78 1.62.67 3.5-.29 5.03-.97 1.55-2.64 2.47-4.47 2.47zm-51.48-5.82h50.58c-4.88-9.35-14.7-15.35-25.29-15.35s-20.41 5.99-25.29 15.35z"/><path d="m45.35 49.73c-10.66 0-19.34-8.68-19.34-19.34s8.68-19.34 19.34-19.34 19.34 8.68 19.34 19.34-8.67 19.34-19.34 19.34zm0-32.86c-7.46 0-13.52 6.07-13.52 13.52s6.07 13.52 13.52 13.52 13.52-6.07 13.52-13.52-6.07-13.52-13.52-13.52z"/></g></svg>