<svg viewBox="0 0 566.59 115.76" xmlns="http://www.w3.org/2000/svg"><path d="m82.04 110.83c-.44-.57-.88-1.18-1.32-1.8-.33-.63-.6-1.51-.82-2.66s-.38-2.43-.49-3.84-.16-2.9-.16-4.47v-14.1c0-7.52-1.37-13.42-4.11-17.7s-7.78-6.74-15.12-7.36v-.31c7.01-1.04 12.11-3.86 15.29-8.46 3.18-4.59 4.77-10.65 4.77-18.17 0-4.28-.58-8.25-1.73-11.9s-3.02-6.81-5.59-9.48c-2.58-2.66-5.92-4.72-10.03-6.19-4.11-1.46-9.07-2.19-14.88-2.19h-47.85v111.84h30.58v-44.8h8.06c1.86 0 3.42.23 4.68.7s2.3 1.31 3.12 2.51 1.4 2.85 1.73 4.93c.33 2.09.49 4.7.49 7.83v7.52c0 1.15.03 2.64.08 4.47s.17 3.73.33 5.72c.16 1.98.44 3.97.82 5.95s.96 3.71 1.73 5.17h32.55v-1.57c-.99-.52-1.7-1.07-2.14-1.64zm-35.68-65.01c-2.08 2.46-5.32 3.68-9.7 3.68h-6.08v-26.32h5.92c4.6 0 7.92.99 9.95 2.98 2.03 1.98 3.04 5.33 3.04 10.03 0 3.97-1.04 7.18-3.12 9.63z"/><path d="m113.6 2.19-28.11 111.84h32.06l3.12-19.58h24.33l3.12 19.58h32.55l-28.6-111.84zm10.69 70.34 8.39-47.46h.33l8.38 47.46z"/><path d="m233.04 82.32c-.27 3.5-.74 6.29-1.4 8.38s-1.59 3.58-2.79 4.46c-1.21.89-2.74 1.33-4.6 1.33-2.3 0-4.14-.57-5.51-1.72s-2.41-3.18-3.12-6.11c-.71-2.92-1.18-6.87-1.4-11.83s-.33-11.2-.33-18.72.11-13.76.33-18.72.68-8.9 1.4-11.83c.71-2.92 1.75-4.96 3.12-6.11s3.21-1.72 5.51-1.72c2.96 0 5.1 1.15 6.41 3.45 1.32 2.3 1.97 6.63 1.97 13v6.26h29.59v-7.05c0-5.43-.68-10.31-2.05-14.65-1.37-4.33-3.56-8.04-6.58-11.12s-6.93-5.46-11.75-7.13-10.69-2.51-17.59-2.51c-7.89 0-14.52 1.02-19.89 3.05-5.37 2.04-9.7 5.35-12.99 9.95s-5.62 10.6-6.99 18.02c-1.37 7.41-2.05 16.45-2.05 27.1s.58 19.34 1.73 26.71c1.15 7.36 3.26 13.37 6.33 18.01 3.07 4.65 7.34 7.96 12.82 9.95 5.48 1.98 12.49 2.98 21.04 2.98 4.93 0 9.73-.5 14.39-1.49s8.79-2.92 12.41-5.79 6.52-6.81 8.71-11.83c2.19-5.01 3.29-11.44 3.29-19.27v-8.3h-29.59c0 5.33-.14 9.74-.41 13.24z"/><path d="m304.63 67.98h36.5v-22.87h-36.5v-19.11h38.97v-23.81h-69.55v111.85h71.03v-23.81h-40.45z"/><path d="m438.29 110.83c-.44-.57-.88-1.18-1.32-1.8-.33-.63-.6-1.51-.82-2.66s-.39-2.43-.49-3.84c-.11-1.41-.16-2.9-.16-4.46v-14.1c0-7.52-1.37-13.42-4.11-17.7s-7.78-6.73-15.12-7.36v-.31c7.01-1.04 12.11-3.86 15.29-8.46 3.18-4.59 4.77-10.65 4.77-18.17 0-4.28-.58-8.25-1.73-11.9s-3.02-6.81-5.59-9.48c-2.58-2.66-5.92-4.72-10.03-6.19-4.11-1.46-9.07-2.19-14.88-2.19h-47.84v111.85h30.58v-44.8h8.06c1.86 0 3.42.24 4.69.7 1.26.47 2.3 1.31 3.12 2.51s1.4 2.85 1.73 4.93c.33 2.09.49 4.7.49 7.83v7.52c0 1.15.03 2.64.08 4.46.05 1.83.16 3.74.33 5.72.16 1.98.44 3.97.82 5.95s.96 3.71 1.73 5.17h32.55v-1.57c-.99-.52-1.7-1.07-2.14-1.64zm-35.67-65.01c-2.08 2.46-5.32 3.68-9.7 3.68h-6.08v-26.32h5.92c4.6 0 7.92.99 9.95 2.98 2.03 1.98 3.04 5.33 3.04 10.02 0 3.97-1.04 7.18-3.12 9.63z"/><path d="m522.86 60.62c1.42-.63 2.74-1.57 3.95-2.82 1.2-1.25 2.22-2.87 3.04-4.86.82-1.98 1.23-4.39 1.23-7.2 0-7.41-2.5-12.48-7.48-15.2-4.99-2.71-11.86-4.07-20.63-4.07h-20.55v59.21h15.12v-22.4h5.26l13.15 22.4h16.77l-13.97-23.97c1.31-.1 2.68-.47 4.11-1.1zm-10.36-10.65c-1.64 1.15-3.95 1.72-6.91 1.72h-8.06v-13.63h8.06c2.96 0 5.26.55 6.91 1.65 1.64 1.1 2.46 2.74 2.46 4.93 0 2.4-.82 4.18-2.46 5.33z"/><path d="m561.82 35.48c-3.18-7.05-7.54-13.21-13.07-18.48-5.54-5.27-12-9.42-19.4-12.45s-15.32-4.54-23.76-4.54-16.36 1.51-23.76 4.54-13.87 7.18-19.4 12.45-9.89 11.43-13.07 18.48-4.77 14.59-4.77 22.64 1.59 15.59 4.77 22.64 7.53 13.18 13.07 18.41c5.53 5.22 12 9.3 19.4 12.22s15.31 4.38 23.76 4.38 16.36-1.46 23.76-4.38 13.86-7 19.4-12.22c5.53-5.22 9.89-11.36 13.07-18.41s4.77-14.59 4.77-22.64-1.59-15.59-4.77-22.64zm-26.79 53.18c-7.01 6.89-16.83 10.34-29.43 10.34s-22.42-3.45-29.43-10.34c-7.02-6.89-10.52-17.08-10.52-30.55s3.51-23.65 10.52-30.55c7.01-6.89 16.82-10.34 29.43-10.34s22.41 3.45 29.43 10.34c7.01 6.89 10.52 17.08 10.52 30.55s-3.51 23.65-10.52 30.55z"/></svg>