<svg viewBox="0 0 90.71 90.71" xmlns="http://www.w3.org/2000/svg"><path d="m67.27 30.16h-3.32v-.22c0-10.25-8.34-18.6-18.6-18.6s-18.6 8.34-18.6 18.6v.22h-3.32c-4.12 0-7.48 3.35-7.48 7.48v34.12c0 4.12 3.35 7.48 7.48 7.48h43.83c4.12 0 7.48-3.35 7.48-7.48v-34.12c0-4.12-3.35-7.48-7.48-7.48zm-34.8-.23c0-7.11 5.78-12.89 12.89-12.89s12.89 5.78 12.89 12.89v.22h-25.77v-.22zm36.57 41.82c0 .98-.79 1.77-1.77 1.77h-43.83c-.98 0-1.77-.79-1.77-1.77v-34.12c0-.98.79-1.77 1.77-1.77h43.83c.98 0 1.77.79 1.77 1.77z" fill="#231f20"/></svg>